<?xml version="1.0" encoding="UTF-8" standalone="no"?>
<!-- Created with Inkscape (http://www.inkscape.org/) -->

<svg
   xmlns:dc="http://purl.org/dc/elements/1.1/"
   xmlns:cc="http://creativecommons.org/ns#"
   xmlns:rdf="http://www.w3.org/1999/02/22-rdf-syntax-ns#"
   xmlns:svg="http://www.w3.org/2000/svg"
   xmlns="http://www.w3.org/2000/svg"
   xmlns:xlink="http://www.w3.org/1999/xlink"
   xmlns:sodipodi="http://sodipodi.sourceforge.net/DTD/sodipodi-0.dtd"
   xmlns:inkscape="http://www.inkscape.org/namespaces/inkscape"
   width="1175.875"
   height="1125"
   id="svg4265"
   version="1.1"
   inkscape:version="0.48.0 r9654"
   sodipodi:docname="Documento nuevo 5">
  <defs
     id="defs4267">
    <filter
       color-interpolation-filters="sRGB"
       inkscape:collect="always"
       id="filter4094">
      <feGaussianBlur
         inkscape:collect="always"
         stdDeviation="9.6212183"
         id="feGaussianBlur4096" />
    </filter>
    <linearGradient
       inkscape:collect="always"
       xlink:href="#linearGradient3879-4-7"
       id="linearGradient4308-1"
       gradientUnits="userSpaceOnUse"
       gradientTransform="translate(-744.5572,-112.38858)"
       x1="1301.9937"
       y1="888.53387"
       x2="791.36041"
       y2="286.48294" />
    <linearGradient
       inkscape:collect="always"
       id="linearGradient3879-4-7">
      <stop
         style="stop-color:#ffffff;stop-opacity:1;"
         offset="0"
         id="stop3881-3-4" />
      <stop
         style="stop-color:#ffffff;stop-opacity:0;"
         offset="1"
         id="stop3883-6-0" />
    </linearGradient>
    <filter
       inkscape:collect="always"
       id="filter4195-9"
       color-interpolation-filters="sRGB">
      <feGaussianBlur
         inkscape:collect="always"
         stdDeviation="12.302255"
         id="feGaussianBlur4197-4" />
    </filter>
    <linearGradient
       inkscape:collect="always"
       xlink:href="#linearGradient3935-0-8"
       id="linearGradient4311-8"
       gradientUnits="userSpaceOnUse"
       gradientTransform="translate(-744.5572,-112.38858)"
       x1="1359.2236"
       y1="427.14026"
       x2="744.6156"
       y2="1051.4146" />
    <linearGradient
       inkscape:collect="always"
       id="linearGradient3935-0-8">
      <stop
         style="stop-color:#ffff00;stop-opacity:1;"
         offset="0"
         id="stop3937-5-2" />
      <stop
         style="stop-color:#ffff00;stop-opacity:0;"
         offset="1"
         id="stop3939-8-4" />
    </linearGradient>
    <filter
       inkscape:collect="always"
       id="filter4215-5"
       color-interpolation-filters="sRGB">
      <feGaussianBlur
         inkscape:collect="always"
         stdDeviation="12.302255"
         id="feGaussianBlur4217-5" />
    </filter>
    <linearGradient
       inkscape:collect="always"
       xlink:href="#linearGradient3903-4-7"
       id="linearGradient4314-1"
       gradientUnits="userSpaceOnUse"
       gradientTransform="translate(-744.5572,-112.38858)"
       x1="1434.814"
       y1="688.36847"
       x2="563.81342"
       y2="645.94208" />
    <linearGradient
       inkscape:collect="always"
       id="linearGradient3903-4-7">
      <stop
         style="stop-color:#0000ff;stop-opacity:1;"
         offset="0"
         id="stop3905-3-1" />
      <stop
         style="stop-color:#0000ff;stop-opacity:0;"
         offset="1"
         id="stop3907-2-1" />
    </linearGradient>
    <filter
       inkscape:collect="always"
       id="filter4191-5"
       x="-0.043381847"
       width="1.0867637"
       y="-0.21724831"
       height="1.4344966"
       color-interpolation-filters="sRGB">
      <feGaussianBlur
         inkscape:collect="always"
         stdDeviation="12.302255"
         id="feGaussianBlur4193-2" />
    </filter>
    <linearGradient
       inkscape:collect="always"
       xlink:href="#linearGradient3959-8-6"
       id="linearGradient4317-7"
       gradientUnits="userSpaceOnUse"
       gradientTransform="translate(-744.5572,-112.38858)"
       x1="1163.1202"
       y1="649.98267"
       x2="943.48242"
       y2="649.98267" />
    <linearGradient
       inkscape:collect="always"
       id="linearGradient3959-8-6">
      <stop
         style="stop-color:#00ff00;stop-opacity:1;"
         offset="0"
         id="stop3961-9-1" />
      <stop
         style="stop-color:#00ff00;stop-opacity:0;"
         offset="1"
         id="stop3963-8-4" />
    </linearGradient>
    <filter
       inkscape:collect="always"
       id="filter4203-2"
       x="-0.22733718"
       width="1.4546744"
       y="-0.043405756"
       height="1.0868115"
       color-interpolation-filters="sRGB">
      <feGaussianBlur
         inkscape:collect="always"
         stdDeviation="12.302255"
         id="feGaussianBlur4205-3" />
    </filter>
    <linearGradient
       inkscape:collect="always"
       xlink:href="#linearGradient3847-7-2"
       id="linearGradient4334-2"
       gradientUnits="userSpaceOnUse"
       x1="1373.3304"
       y1="713.14117"
       x2="813.43451"
       y2="522.49719" />
    <linearGradient
       inkscape:collect="always"
       id="linearGradient3847-7-2">
      <stop
         style="stop-color:#ff0000;stop-opacity:1;"
         offset="0"
         id="stop3849-3-1" />
      <stop
         style="stop-color:#ff0000;stop-opacity:0;"
         offset="1"
         id="stop3851-3-6" />
    </linearGradient>
    <linearGradient
       inkscape:collect="always"
       xlink:href="#linearGradient3895-0-5"
       id="linearGradient4322-8"
       gradientUnits="userSpaceOnUse"
       gradientTransform="translate(-744.5572,-112.38858)"
       x1="1349.6501"
       y1="863.90143"
       x2="764.87189"
       y2="304.27692" />
    <linearGradient
       inkscape:collect="always"
       id="linearGradient3895-0-5">
      <stop
         style="stop-color:#ffffff;stop-opacity:1;"
         offset="0"
         id="stop3897-6-7" />
      <stop
         style="stop-color:#ffffff;stop-opacity:0;"
         offset="1"
         id="stop3899-2-6" />
    </linearGradient>
    <filter
       inkscape:collect="always"
       id="filter4199-1"
       color-interpolation-filters="sRGB">
      <feGaussianBlur
         inkscape:collect="always"
         stdDeviation="12.302255"
         id="feGaussianBlur4201-8" />
    </filter>
    <linearGradient
       inkscape:collect="always"
       xlink:href="#linearGradient3943-4-2"
       id="linearGradient4325-9"
       gradientUnits="userSpaceOnUse"
       gradientTransform="translate(-744.5572,-112.38858)"
       x1="1328.0765"
       y1="369.8028"
       x2="639.11005"
       y2="1016.3004" />
    <linearGradient
       inkscape:collect="always"
       id="linearGradient3943-4-2">
      <stop
         style="stop-color:#ffff00;stop-opacity:1;"
         offset="0"
         id="stop3945-8-7" />
      <stop
         style="stop-color:#ffff00;stop-opacity:0;"
         offset="1"
         id="stop3947-4-9" />
    </linearGradient>
    <filter
       inkscape:collect="always"
       id="filter4211-5"
       color-interpolation-filters="sRGB">
      <feGaussianBlur
         inkscape:collect="always"
         stdDeviation="12.302255"
         id="feGaussianBlur4213-4" />
    </filter>
    <linearGradient
       inkscape:collect="always"
       xlink:href="#linearGradient3927-3-1"
       id="linearGradient4328-3"
       gradientUnits="userSpaceOnUse"
       gradientTransform="translate(-744.5572,-112.38858)"
       x1="1451.6135"
       y1="629.7796"
       x2="600.4411"
       y2="605.53589" />
    <linearGradient
       inkscape:collect="always"
       id="linearGradient3927-3-1">
      <stop
         style="stop-color:#0000ff;stop-opacity:1;"
         offset="0"
         id="stop3929-6-2" />
      <stop
         style="stop-color:#0000ff;stop-opacity:0;"
         offset="1"
         id="stop3931-5-3" />
    </linearGradient>
    <filter
       inkscape:collect="always"
       id="filter4187-3"
       x="-0.043405756"
       width="1.0868115"
       y="-0.22733718"
       height="1.4546744"
       color-interpolation-filters="sRGB">
      <feGaussianBlur
         inkscape:collect="always"
         stdDeviation="12.302255"
         id="feGaussianBlur4189-4" />
    </filter>
    <linearGradient
       inkscape:collect="always"
       xlink:href="#linearGradient3951-5-1"
       id="linearGradient4331-1"
       gradientUnits="userSpaceOnUse"
       gradientTransform="translate(-744.5572,-112.38858)"
       x1="1200.0612"
       y1="587.35321"
       x2="865.23645"
       y2="591.39386" />
    <linearGradient
       inkscape:collect="always"
       id="linearGradient3951-5-1">
      <stop
         style="stop-color:#00ff00;stop-opacity:1;"
         offset="0"
         id="stop3953-0-3" />
      <stop
         style="stop-color:#00ff00;stop-opacity:0;"
         offset="1"
         id="stop3955-2-8" />
    </linearGradient>
    <filter
       inkscape:collect="always"
       id="filter4207-7"
       x="-0.21724831"
       width="1.4344966"
       y="-0.043381844"
       height="1.0867637"
       color-interpolation-filters="sRGB">
      <feGaussianBlur
         inkscape:collect="always"
         stdDeviation="12.302255"
         id="feGaussianBlur4209-4" />
    </filter>
  </defs>
  <sodipodi:namedview
     id="base"
     pagecolor="#ffffff"
     bordercolor="#666666"
     borderopacity="1.0"
     inkscape:pageopacity="0.0"
     inkscape:pageshadow="2"
     inkscape:zoom="0.35"
     inkscape:cx="512.21875"
     inkscape:cy="556.79407"
     inkscape:document-units="px"
     inkscape:current-layer="layer1"
     showgrid="false"
     fit-margin-top="0"
     fit-margin-left="0"
     fit-margin-right="0"
     fit-margin-bottom="0"
     inkscape:window-width="1280"
     inkscape:window-height="962"
     inkscape:window-x="-8"
     inkscape:window-y="-8"
     inkscape:window-maximized="1" />
  <metadata
     id="metadata4270">
    <rdf:RDF>
      <cc:Work
         rdf:about="">
        <dc:format>image/svg+xml</dc:format>
        <dc:type
           rdf:resource="http://purl.org/dc/dcmitype/StillImage" />
        <dc:title></dc:title>
      </cc:Work>
    </rdf:RDF>
  </metadata>
  <g
     inkscape:label="Capa 1"
     inkscape:groupmode="layer"
     id="layer1"
     transform="translate(162.21875,35.84375)">
    <rect
       style="fill:#000000;fill-rule:evenodd;stroke:#000000;stroke-width:1.14462113px;stroke-linecap:butt;stroke-linejoin:miter;stroke-opacity:1"
       id="rect3877-7-2"
       width="1174.7417"
       height="1123.8672"
       x="-161.65657"
       y="-35.285706" />
    <path
       sodipodi:nodetypes="ccccc"
       inkscape:connector-curvature="0"
       id="path4103"
       d="M 23.131314,110.67905 291.89321,106.92157 C 24.204614,182.21576 -74.089089,343.38368 564.93042,878.3286 l 0.5722,161.0675 C -262.68559,244.27538 -204.76719,113.73468 23.131314,110.67905 z"
       style="opacity:0.13877552;fill:#ffd5d5;fill-rule:evenodd;stroke:#000000;stroke-width:0.83422029px;stroke-linecap:butt;stroke-linejoin:miter;stroke-opacity:1" />
    <path
       style="opacity:0.13877552;fill:#ffd5d5;fill-rule:evenodd;stroke:#000000;stroke-width:0.75428224px;stroke-linecap:butt;stroke-linejoin:miter;stroke-opacity:1"
       d="m 498.00052,-9.57884 243.00804,-3.39742 246.87385,697.48786 0.5173,145.6336 z"
       id="rect4098"
       inkscape:connector-curvature="0"
       sodipodi:nodetypes="ccccc" />
    <path
       transform="matrix(1.0735407,0,0,1.0735407,2202.0353,500.83914)"
       d="m -1174.2857,53.816441 c 0,260.362799 -208.5074,471.428559 -465.7143,471.428559 -257.2069,0 -465.7143,-211.06576 -465.7143,-471.428559 0,-260.362801 208.5074,-471.428561 465.7143,-471.428561 257.2069,0 465.7143,211.06576 465.7143,471.428561 z"
       sodipodi:ry="471.42856"
       sodipodi:rx="465.71429"
       sodipodi:cy="53.816441"
       sodipodi:cx="-1640"
       id="path4100"
       style="fill:#000000;fill-rule:evenodd;stroke:#000000;stroke-width:1px;stroke-linecap:butt;stroke-linejoin:miter;stroke-opacity:1"
       sodipodi:type="arc" />
    <path
       style="fill:url(#linearGradient4331-1);fill-opacity:1;fill-rule:evenodd;stroke:#000000;stroke-width:0;stroke-linecap:butt;stroke-linejoin:miter;stroke-miterlimit:4;stroke-opacity:1;stroke-dasharray:none;filter:url(#filter4207-7)"
       d="m 376.71212,169.20042 0,64.46875 c 0.5641,-0.0222 1.1213,-0.125 1.6875,-0.125 59.6944,0 108.0625,123.91885 108.0625,276.78123 0,152.8623 -48.3681,276.7813 -108.0625,276.7813 -0.5657,0 -1.1238,-0.072 -1.6875,-0.094 l 0,62.4062 c 1.0149,0.059 2.0109,0.1875 3.0313,0.1875 73.395,0 132.875,-152.335 132.875,-340.2812 0,-187.94624 -59.48,-340.31253 -132.875,-340.31253 -1.0204,0 -2.0164,0.12891 -3.0313,0.1875 z"
       id="path3827-0-7"
       inkscape:connector-curvature="0"
       transform="matrix(1.36688,0,0,1.36688,-65.747849,-142.24688)" />
    <path
       inkscape:connector-curvature="0"
       id="path3867-9-7"
       d="m 710.47292,541.9224 c -4.1555,-71.9853 -154.7918,-129.87498 -340.125,-129.87498 -185.33332,0 -335.93923,57.88968 -340.09383,129.87498 l 62.40625,0 c 2.31798,-58.9133 125.27383,-106.4062 276.68758,-106.4062 151.4126,0 274.3364,47.4935 276.6562,106.4062 l 64.4688,0 z"
       style="fill:url(#linearGradient4328-3);fill-opacity:1;fill-rule:evenodd;stroke:#000000;stroke-width:0;stroke-linecap:butt;stroke-linejoin:miter;stroke-miterlimit:4;stroke-opacity:1;stroke-dasharray:none;filter:url(#filter4187-3)"
       transform="matrix(1.36688,0,0,1.36688,-65.747849,-142.24688)" />
    <path
       inkscape:connector-curvature="0"
       id="path3869-3-9"
       d="m 133.83379,762.4375 44.72187,-46.4346 c -0.42173,-0.3754 -0.89442,-0.6879 -1.30224,-1.0806 -42.99583,-41.4099 8.1286,-164.2173 114.169,-274.31888 106.0402,-110.10152 226.8404,-165.80327 269.8363,-124.39337 0.4074,0.39241 0.7597,0.83114 1.1504,1.2381 l 43.2911,-44.94909 c -0.6903,-0.74624 -1.3183,-1.53001 -2.0533,-2.23787 -52.8638,-50.91394 -201.3798,17.54663 -331.7577,152.91786 C 141.51126,558.5503 78.65648,709.5557 131.52042,760.4697 c 0.73489,0.7078 1.54174,1.3059 2.31337,1.9677 z"
       style="fill:url(#linearGradient4325-9);fill-opacity:1;fill-rule:evenodd;stroke:#000000;stroke-width:0;stroke-linecap:butt;stroke-linejoin:miter;stroke-miterlimit:4;stroke-opacity:1;stroke-dasharray:none;filter:url(#filter4211-5)"
       transform="matrix(1.36688,0,0,1.36688,-65.747849,-142.24688)" />
    <path
       inkscape:connector-curvature="0"
       id="path3873-7-3"
       d="m 138.40247,256.42909 42.25156,48.69318 c 0.41151,-0.38646 0.76499,-0.82928 1.19264,-1.20037 45.08706,-39.12252 162.83345,22.77373 263.01635,138.23058 100.1829,115.45672 144.8646,240.75212 99.7775,279.87462 -0.4272,0.3708 -0.8956,0.6825 -1.3359,1.0352 l 40.8998,47.1354 c 0.8052,-0.6206 1.6417,-1.1763 2.4124,-1.8451 55.4351,-48.1016 0.523,-202.1422 -122.6533,-344.09772 C 340.78732,282.29929 196.00428,206.19922 140.56915,254.30085 c -0.77069,0.66876 -1.43849,1.41888 -2.16665,2.12828 z"
       style="fill:url(#linearGradient4322-8);fill-opacity:1;fill-rule:evenodd;stroke:#000000;stroke-width:0;stroke-linecap:butt;stroke-linejoin:miter;stroke-miterlimit:4;stroke-opacity:1;stroke-dasharray:none;filter:url(#filter4199-1)"
       transform="matrix(1.36688,0,0,1.36688,-65.747849,-142.24688)" />
    <path
       transform="matrix(1.303504,0,0,3.1126836,-1024.1186,-1417.2081)"
       d="m 1396.0308,635.16919 c 0,59.69443 -123.9194,108.08632 -276.7818,108.08632 -152.86234,0 -276.78178,-48.39189 -276.78178,-108.08632 0,-59.69443 123.91944,-108.08632 276.78178,-108.08632 152.8624,0 276.7818,48.39189 276.7818,108.08632 z"
       sodipodi:ry="108.08632"
       sodipodi:rx="276.7818"
       sodipodi:cy="635.16919"
       sodipodi:cx="1119.249"
       id="path3845-8-1"
       style="fill:#000000;fill-rule:evenodd;stroke:#000000;stroke-width:1px;stroke-linecap:butt;stroke-linejoin:miter;stroke-opacity:1"
       sodipodi:type="arc" />
    <path
       sodipodi:type="arc"
       style="fill:url(#linearGradient4334-2);fill-opacity:1;fill-rule:evenodd;stroke:#000000;stroke-width:0;stroke-linecap:butt;stroke-linejoin:miter;stroke-miterlimit:4;stroke-opacity:1;stroke-dasharray:none"
       id="path3823-4-9"
       sodipodi:cx="1119.249"
       sodipodi:cy="635.16919"
       sodipodi:rx="276.7818"
       sodipodi:ry="108.08632"
       d="m 1396.0308,635.16919 c 0,59.69443 -123.9194,108.08632 -276.7818,108.08632 -152.86234,0 -276.78178,-48.39189 -276.78178,-108.08632 0,-59.69443 123.91944,-108.08632 276.78178,-108.08632 152.8624,0 276.7818,48.39189 276.7818,108.08632 z"
       transform="matrix(1.303504,0,0,3.1126836,-1024.1186,-1417.2081)" />
    <path
       style="fill:url(#linearGradient4317-7);fill-opacity:1;fill-rule:evenodd;stroke:#000000;stroke-width:0;stroke-linecap:butt;stroke-linejoin:miter;stroke-miterlimit:4;stroke-opacity:1;stroke-dasharray:none;filter:url(#filter4203-2)"
       d="m 376.71212,169.20042 c -71.9853,4.15545 -129.87498,154.79175 -129.87498,340.12498 0,185.3333 57.88968,335.9392 129.87498,340.0938 l 0,-62.4063 c -58.9133,-2.318 -106.4062,-125.2738 -106.4062,-276.6875 0,-151.41255 47.4935,-274.33635 106.4062,-276.65623 l 0,-64.46875 z"
       id="path3837-2-8"
       inkscape:connector-curvature="0"
       transform="matrix(1.36688,0,0,1.36688,-65.747849,-142.24688)" />
    <path
       inkscape:connector-curvature="0"
       id="path3865-8-6"
       d="m 710.02342,540.3516 -64.4688,0 c 0.022,0.5641 0.125,1.1213 0.125,1.6875 0,59.6944 -123.9188,108.0625 -276.7812,108.0625 -152.86225,0 -276.78127,-48.3681 -276.78127,-108.0625 0,-0.5657 0.0716,-1.1238 0.0937,-1.6875 l -62.40625,0 c -0.0586,1.0149 -0.1875,2.0109 -0.1875,3.0313 0,73.395 152.33503,132.875 340.28122,132.875 187.9462,0 340.3125,-59.48 340.3125,-132.875 0,-1.0204 -0.1289,-2.0164 -0.1875,-3.0313 z"
       style="fill:url(#linearGradient4314-1);fill-opacity:1;fill-rule:evenodd;stroke:#000000;stroke-width:0;stroke-linecap:butt;stroke-linejoin:miter;stroke-miterlimit:4;stroke-opacity:1;stroke-dasharray:none;filter:url(#filter4191-5)"
       transform="matrix(1.36688,0,0,1.36688,-65.747849,-142.24688)" />
    <path
       inkscape:connector-curvature="0"
       id="path3871-5-5"
       d="m 131.81348,760.4172 c 54.73119,46.943 200.92334,-21.3972 329.48864,-154.8864 128.5653,-133.4893 191.3443,-282.12355 142.3778,-335.05201 l -43.2911,44.94909 c 40.8252,42.5376 -10.2615,164.04422 -115.2968,273.10232 -105.0346,109.0574 -224.51462,164.649 -268.55667,125.4523 l -44.72187,46.4347 z"
       style="fill:url(#linearGradient4311-8);fill-opacity:1;fill-rule:evenodd;stroke:#000000;stroke-width:0;stroke-linecap:butt;stroke-linejoin:miter;stroke-miterlimit:4;stroke-opacity:1;stroke-dasharray:none;filter:url(#filter4215-5)"
       transform="matrix(1.36688,0,0,1.36688,-65.747849,-142.24688)" />
    <path
       inkscape:connector-curvature="0"
       id="path3875-5-0"
       d="m 138.40247,254.40878 c -51.64702,50.31636 3.35303,202.03157 124.81675,342.01362 121.4638,139.982 263.892,215.7947 320.9852,171.755 L 543.30452,721.042 C 497.28832,757.9018 380.83402,696.1593 281.60052,581.7967 182.36778,467.4349 137.67772,343.4644 180.65403,303.10196 l -42.25156,-48.69318 z"
       style="fill:url(#linearGradient4308-1);fill-opacity:1;fill-rule:evenodd;stroke:#000000;stroke-width:0;stroke-linecap:butt;stroke-linejoin:miter;stroke-miterlimit:4;stroke-opacity:1;stroke-dasharray:none;filter:url(#filter4195-9)"
       transform="matrix(1.36688,0,0,1.36688,-65.747849,-142.24688)" />
    <path
       sodipodi:type="arc"
       style="opacity:0.20408164;fill:#ffffff;fill-rule:evenodd;stroke:#000000;stroke-width:1px;stroke-linecap:butt;stroke-linejoin:miter;stroke-opacity:1"
       id="path3269"
       sodipodi:cx="-1640"
       sodipodi:cy="53.816441"
       sodipodi:rx="465.71429"
       sodipodi:ry="471.42856"
       d="m -1174.2857,53.816441 c 0,260.362799 -208.5074,471.428559 -465.7143,471.428559 -257.2069,0 -465.7143,-211.06576 -465.7143,-471.428559 0,-260.362801 208.5074,-471.428561 465.7143,-471.428561 257.2069,0 465.7143,211.06576 465.7143,471.428561 z"
       transform="matrix(1.0735407,0,0,1.0735407,2202.0353,500.83914)" />
    <path
       style="opacity:0.20408164;fill:#ffffff;fill-rule:evenodd;stroke:#000000;stroke-width:1.07354069px;stroke-linecap:butt;stroke-linejoin:miter;stroke-opacity:1;filter:url(#filter4094)"
       d="m 644.91972,95.97923 c 130.75744,91.2843 216.4687,243.9576 216.4687,416.9063 0,279.51007 -223.8466,506.12497 -499.9687,506.12497 -74.69201,0 -145.54231,-16.5901 -209.18751,-46.3125 80.5586,56.2291 178.21461,89.1562 283.46871,89.1562 276.1221,0 499.96879,-226.5836 499.96879,-506.0937 0,-203.89977 -119.11337,-379.62457 -290.74999,-459.78127 z"
       id="path4049"
       inkscape:connector-curvature="0" />
  </g>
</svg>
