<?xml version="1.0" encoding="UTF-8" standalone="no"?>
<svg
   xmlns:dc="http://purl.org/dc/elements/1.1/"
   xmlns:cc="http://creativecommons.org/ns#"
   xmlns:rdf="http://www.w3.org/1999/02/22-rdf-syntax-ns#"
   xmlns:svg="http://www.w3.org/2000/svg"
   xmlns="http://www.w3.org/2000/svg"
   xmlns:xlink="http://www.w3.org/1999/xlink"
   xmlns:sodipodi="http://sodipodi.sourceforge.net/DTD/sodipodi-0.dtd"
   xmlns:inkscape="http://www.inkscape.org/namespaces/inkscape"
   width="744.09448819"
   height="1052.3622047"
   id="svg3531"
   version="1.1"
   inkscape:version="0.48.3.1 r9886"
   sodipodi:docname="diente.svg">
  <sodipodi:namedview
     pagecolor="#ffffff"
     bordercolor="#666666"
     borderopacity="1"
     objecttolerance="10"
     gridtolerance="10"
     guidetolerance="10"
     inkscape:pageopacity="0"
     inkscape:pageshadow="2"
     inkscape:window-width="1362"
     inkscape:window-height="732"
     id="namedview3555"
     showgrid="false"
     inkscape:zoom="1.5212346"
     inkscape:cx="149.93965"
     inkscape:cy="559.75231"
     inkscape:window-x="2"
     inkscape:window-y="18"
     inkscape:window-maximized="0"
     inkscape:current-layer="svg3531" />
  <title
     id="title3533">diente</title>
  <defs
     id="defs3535">
    <inkscape:path-effect
       effect="construct_grid"
       id="path-effect4548"
       is_visible="true"
       nr_x="6"
       nr_y="6" />
    <inkscape:path-effect
       effect="curvestitching"
       id="path-effect4546"
       is_visible="true"
       count="2"
       startpoint_edge_variation="0;1"
       startpoint_spacing_variation="0;1"
       endpoint_edge_variation="0;1"
       endpoint_spacing_variation="0;1"
       strokepath="m 206.44582,643.31681 29.15625,0"
       prop_scale="1"
       scale_y_rel="false" />
    <linearGradient
       id="linearGradient1697-9-6">
      <stop
         stop-color="#69db0e"
         id="stop1698-4-1"
         offset="0" />
      <stop
         stop-color="#397607"
         id="stop1699-8-4"
         offset="1" />
    </linearGradient>
    <linearGradient
       y2="569.727"
       x2="267.15061"
       y1="451.09974"
       x1="267.15061"
       id="linearGradient3673-8-2"
       xlink:href="#linearGradient1697-9-6"
       gradientUnits="userSpaceOnUse" />
    <linearGradient
       y2="764.55501"
       x2="178.79632"
       y1="666.50338"
       x1="178.50893"
       id="linearGradient4817"
       xlink:href="#linearGradient1702-4-2"
       gradientTransform="scale(1.4988505,0.66717793)"
       gradientUnits="userSpaceOnUse" />
    <linearGradient
       id="linearGradient1702-4-2">
      <stop
         stop-color="#ffffff"
         stop-opacity="0.690722"
         id="stop1703-5-2"
         offset="0" />
      <stop
         stop-color="#ffffff"
         stop-opacity="0"
         id="stop1704-5-1"
         offset="1" />
    </linearGradient>
  </defs>
  <metadata
     id="metadata3271">image/svg+xml<rdf:RDF>
  <cc:Work
     rdf:about="">
    <dc:format>image/svg+xml</dc:format>
    <dc:type
       rdf:resource="http://purl.org/dc/dcmitype/StillImage" />
    <dc:title>diente</dc:title>
  </cc:Work>
</rdf:RDF>
</metadata>
  <path
     style="fill:#6699cc;fill-opacity:1;stroke:none"
     d="m 178.15625,436.96875 c -2.83264,0 -5.125,1.78491 -5.125,4 l 0,28.28125 c 0,2.21509 2.29236,3.96875 5.125,3.96875 l 31.375,0 c 2.83264,0 5.09375,-1.75366 5.09375,-3.96875 l 0,-28.28125 c 0,-2.21509 -2.26111,-4 -5.09375,-4 l -31.375,0 z m 4.03125,11.625 11,0 c -1e-5,0.76523 -0.24561,1.40186 -0.78125,1.9375 -0.53566,0.53566 -1.20355,0.81251 -1.96875,0.8125 l -8.25,0 0,2.75 8.25,0 c 0.7652,10e-6 1.43309,0.27686 1.96875,0.8125 0.53564,0.53566 0.78124,1.17229 0.78125,1.9375 l 0,2.75 c -1e-5,0.76522 -0.24561,1.4331 -0.78125,1.96875 -0.53566,0.53565 -1.20355,0.8125 -1.96875,0.8125 l -8.25,0 c -0.76522,0 -1.4331,-0.27685 -1.96875,-0.8125 -0.53565,-0.53565 -0.78125,-1.20353 -0.78125,-1.96875 l 11,0 0,-2.75 -8.25,0 c -0.76522,10e-6 -1.4331,-0.27684 -1.96875,-0.8125 -0.53565,-0.53564 -0.78125,-1.17228 -0.78125,-1.9375 0,-0.76521 0.2456,-1.40184 0.78125,-1.9375 0.53565,-0.53564 1.20353,-0.81249 1.96875,-0.8125 l -2.75,0 c 0,-0.7652 0.2456,-1.43309 0.78125,-1.96875 0.53565,-0.53564 1.20353,-0.78124 1.96875,-0.78125 z m 15.15625,0 8.25,0 c 0.7652,10e-6 1.43309,0.24561 1.96875,0.78125 0.53564,0.53566 0.78124,1.20355 0.78125,1.96875 l 0,8.25 c -1e-5,0.76522 -0.24561,1.4331 -0.78125,1.96875 -0.53566,0.53565 -1.20355,0.8125 -1.96875,0.8125 l -8.25,0 c -0.76522,0 -1.4331,-0.27685 -1.96875,-0.8125 -0.53565,-0.53565 -0.8125,-1.20353 -0.8125,-1.96875 l 0,-8.25 c 0,-0.7652 0.27685,-1.43309 0.8125,-1.96875 0.53565,-0.53564 1.20353,-0.78124 1.96875,-0.78125 z m -2.78125,2.75 c 0.76521,10e-6 1.4331,0.27686 1.96875,0.8125 0.53565,0.53566 0.8125,1.17229 0.8125,1.9375 l 0,5.5 11,0 c -0.76523,0 -1.40186,-0.2456 -1.9375,-0.78125 -0.53566,-0.53565 -0.81251,-1.20353 -0.8125,-1.96875 l 0,-5.5 -11.03125,0 z"
     id="rect3586-3"
     inkscape:connector-curvature="0" />
  <path
     style="fill:#003366;fill-opacity:1;stroke:none"
     d="m 137.8125,400.625 c -3.47674,0 -6.28125,2.20739 -6.28125,4.9375 l 0,26.40625 c 0,2.73011 2.80451,4.90625 6.28125,4.90625 l 29.0625,0 c 2.49891,0 4.64524,-1.12886 5.65625,-2.78125 -2.20152,-0.10503 -3.88189,-0.80346 -5.0625,-2.15625 -1.25334,-1.49333 -1.90625,-3.34916 -1.90625,-5.5625 l 0,-5.28125 c 0,-2.53332 0.6575,-4.47915 1.9375,-5.8125 1.30666,-1.35998 3.15791,-2.03123 5.53125,-2.03125 0.0439,0 0.0815,-4.8e-4 0.125,0 l 0,-7.6875 c 0,-2.73011 -2.80451,-4.9375 -6.28125,-4.9375 l -29.0625,0 z m 35.34375,12.625 0,2.03125 c 3.39628,0.0245 5.09373,1.97049 5.09375,5.8125 l 0,5.65625 c -2e-5,1.62667 -0.4371,2.95084 -1.34375,3.9375 -0.8682,0.94711 -2.12912,1.42479 -3.75,1.4375 -0.0283,0.70914 -0.25675,1.36689 -0.625,1.96875 0.18532,0.009 0.36995,0.0312 0.5625,0.0312 2.47999,0 4.33582,-0.72083 5.5625,-2.1875 1.22665,-1.46666 1.84373,-3.32249 1.84375,-5.5625 l 0,-5.28125 c -2e-5,-2.42665 -0.6621,-4.33207 -1.96875,-5.71875 -1.28252,-1.38718 -3.06493,-2.09933 -5.375,-2.125 z m 0,18.875 c 0.002,-0.0527 0,-0.10313 0,-0.15625 l 0,-16.6875 c -0.0218,-1.6e-4 -0.0406,0 -0.0625,0 -3.52001,2e-5 -5.28126,1.94585 -5.28125,5.8125 l 0,5.65625 c -1e-5,1.60001 0.47291,2.91959 1.40625,3.90625 0.95999,0.98667 2.24832,1.46875 3.875,1.46875 0.0222,0 0.0404,1.7e-4 0.0625,0 z m -37,-27.15625 6,0 0,15.78125 0,1.8125 c -1e-5,0.48001 0.045,1.14668 0.125,2 0.10666,0.85334 0.39041,1.61917 0.84375,2.3125 0.39999,0.69334 1.06666,1.21584 2,1.5625 0.93332,0.34667 2.12707,0.53125 3.59375,0.53125 l 5.5,0 0,-18.9375 -9.1875,0 0,-5 24.75,0 0,5 -9.28125,0 0,23.6875 -4.59375,0 0,-4.75 -1.6875,0 0,4.75 -6,0 -0.5,0 -0.4375,0 c -1.12001,0 -2.12001,-0.0496 -3,-0.15625 -0.85334,-0.10667 -1.79918,-0.39042 -2.8125,-0.84375 -1.01334,-0.45333 -1.91417,-1.075 -2.6875,-1.875 -0.77334,-0.8 -1.34542,-1.65583 -1.71875,-2.5625 -0.34667,-0.93333 -0.58542,-1.92874 -0.71875,-2.96875 -0.13334,-1.03999 -0.1875,-2.09874 -0.1875,-3.21875 l 0,-17.125 z m 56.5,8.40625 c -2.32001,2e-5 -4.18959,0.77044 -5.65625,2.34375 l 0.1875,-2.03125 -2.25,0 0,28.4375 2.25,-0.875 0,-9.21875 c 1.22666,1.44 2.98791,2.1875 5.28125,2.1875 2.31999,0 4.17124,-0.6575 5.53125,-1.9375 1.35998,-1.30666 2.03123,-3.16708 2.03125,-5.59375 l 0,-5.5625 c -2e-5,-2.29332 -0.6621,-4.15373 -1.96875,-5.59375 -1.28001,-1.43998 -3.08626,-2.15623 -5.40625,-2.15625 z m -0.0937,2.03125 c 1.43999,2e-5 2.6429,0.43252 3.65625,1.3125 1.03998,0.88002 1.56248,2.30335 1.5625,4.25 l 0,6.125 c -2e-5,1.65334 -0.48668,2.90125 -1.5,3.78125 -0.98668,0.85334 -2.26585,1.28125 -3.8125,1.28125 -1.54668,0 -2.82584,-0.39208 -3.8125,-1.21875 -0.98667,-0.82666 -1.46876,-2.11041 -1.46875,-3.84375 l 0,-6.34375 c 0.08,-1.83999 0.64749,-3.1779 1.6875,-4.03125 1.03999,-0.87998 2.27416,-1.31248 3.6875,-1.3125 z"
     id="rect3586"
     inkscape:connector-curvature="0" />
  <text
     xml:space="preserve"
     style="font-size:40px;font-style:normal;font-variant:normal;font-weight:normal;font-stretch:normal;line-height:125%;letter-spacing:0px;word-spacing:0px;fill:#6699cc;fill-opacity:1;stroke:none;font-family:Advent Pro;-inkscape-font-specification:Advent Pro"
     x="135.72868"
     y="461.66217"
     id="text3576"
     sodipodi:linespacing="125%"><tspan
       sodipodi:role="line"
       id="tspan3578"
       x="135.72868"
       y="461.66217">ar</tspan></text>
  <path
     inkscape:connector-curvature="0"
     style="fill:#f44800;fill-opacity:1;stroke:none"
     d="m 176.13347,516.69279 c -2.83264,0 -5.125,1.78491 -5.125,4 l 0,28.28125 c 0,2.21509 2.29236,3.96875 5.125,3.96875 l 31.375,0 c 2.83264,0 5.09375,-1.75366 5.09375,-3.96875 l 0,-28.28125 c 0,-2.21509 -2.26111,-4 -5.09375,-4 l -31.375,0 z m 4.03125,11.625 11,0 c -10e-6,0.76523 -0.24561,1.40186 -0.78125,1.9375 -0.53566,0.53566 -1.20355,0.81251 -1.96875,0.8125 l -8.25,0 0,2.75 8.25,0 c 0.7652,1e-5 1.43309,0.27686 1.96875,0.8125 0.53564,0.53566 0.78124,1.17229 0.78125,1.9375 l 0,2.75 c -10e-6,0.76522 -0.24561,1.4331 -0.78125,1.96875 -0.53566,0.53565 -1.20355,0.8125 -1.96875,0.8125 l -8.25,0 c -0.76522,0 -1.4331,-0.27685 -1.96875,-0.8125 -0.53565,-0.53565 -0.78125,-1.20353 -0.78125,-1.96875 l 11,0 0,-2.75 -8.25,0 c -0.76522,1e-5 -1.4331,-0.27684 -1.96875,-0.8125 -0.53565,-0.53564 -0.78125,-1.17228 -0.78125,-1.9375 0,-0.76521 0.2456,-1.40184 0.78125,-1.9375 0.53565,-0.53564 1.20353,-0.81249 1.96875,-0.8125 l -2.75,0 c 0,-0.7652 0.2456,-1.43309 0.78125,-1.96875 0.53565,-0.53564 1.20353,-0.78124 1.96875,-0.78125 z m 15.15625,0 8.25,0 c 0.7652,1e-5 1.43309,0.24561 1.96875,0.78125 0.53564,0.53566 0.78124,1.20355 0.78125,1.96875 l 0,8.25 c -10e-6,0.76522 -0.24561,1.4331 -0.78125,1.96875 -0.53566,0.53565 -1.20355,0.8125 -1.96875,0.8125 l -8.25,0 c -0.76522,0 -1.4331,-0.27685 -1.96875,-0.8125 -0.53565,-0.53565 -0.8125,-1.20353 -0.8125,-1.96875 l 0,-8.25 c 0,-0.7652 0.27685,-1.43309 0.8125,-1.96875 0.53565,-0.53564 1.20353,-0.78124 1.96875,-0.78125 z m -2.78125,2.75 c 0.76521,1e-5 1.4331,0.27686 1.96875,0.8125 0.53565,0.53566 0.8125,1.17229 0.8125,1.9375 l 0,5.5 11,0 c -0.76523,0 -1.40186,-0.2456 -1.9375,-0.78125 -0.53566,-0.53565 -0.81251,-1.20353 -0.8125,-1.96875 l 0,-5.5 -11.03125,0 z"
     id="rect3586-3-1" />
  <path
     inkscape:connector-curvature="0"
     style="fill:#980101;fill-opacity:1;stroke:none"
     d="m 135.78972,480.34904 c -3.47674,0 -6.28125,2.20739 -6.28125,4.9375 l 0,26.40625 c 0,2.73011 2.80451,4.90625 6.28125,4.90625 l 29.0625,0 c 2.49891,0 4.64524,-1.12886 5.65625,-2.78125 -2.20152,-0.10503 -3.88189,-0.80346 -5.0625,-2.15625 -1.25334,-1.49333 -1.90625,-3.34916 -1.90625,-5.5625 l 0,-5.28125 c 0,-2.53332 0.6575,-4.47915 1.9375,-5.8125 1.30666,-1.35998 3.15791,-2.03123 5.53125,-2.03125 0.0439,0 0.0815,-4.8e-4 0.125,0 l 0,-7.6875 c 0,-2.73011 -2.80451,-4.9375 -6.28125,-4.9375 l -29.0625,0 z m 35.34375,12.625 0,2.03125 c 3.39628,0.0245 5.09373,1.97049 5.09375,5.8125 l 0,5.65625 c -2e-5,1.62667 -0.4371,2.95084 -1.34375,3.9375 -0.8682,0.94711 -2.12912,1.42479 -3.75,1.4375 -0.0283,0.70914 -0.25675,1.36689 -0.625,1.96875 0.18532,0.009 0.36995,0.0312 0.5625,0.0312 2.47999,0 4.33582,-0.72083 5.5625,-2.1875 1.22665,-1.46666 1.84373,-3.32249 1.84375,-5.5625 l 0,-5.28125 c -2e-5,-2.42665 -0.6621,-4.33207 -1.96875,-5.71875 -1.28252,-1.38718 -3.06493,-2.09933 -5.375,-2.125 z m 0,18.875 c 0.002,-0.0527 0,-0.10313 0,-0.15625 l 0,-16.6875 c -0.0218,-1.6e-4 -0.0406,0 -0.0625,0 -3.52001,2e-5 -5.28126,1.94585 -5.28125,5.8125 l 0,5.65625 c -10e-6,1.60001 0.47291,2.91959 1.40625,3.90625 0.95999,0.98667 2.24832,1.46875 3.875,1.46875 0.0222,0 0.0404,1.7e-4 0.0625,0 z m -37,-27.15625 6,0 0,15.78125 0,1.8125 c -10e-6,0.48001 0.045,1.14668 0.125,2 0.10666,0.85334 0.39041,1.61917 0.84375,2.3125 0.39999,0.69334 1.06666,1.21584 2,1.5625 0.93332,0.34667 2.12707,0.53125 3.59375,0.53125 l 5.5,0 0,-18.9375 -9.1875,0 0,-5 24.75,0 0,5 -9.28125,0 0,23.6875 -4.59375,0 0,-4.75 -1.6875,0 0,4.75 -6,0 -0.5,0 -0.4375,0 c -1.12001,0 -2.12001,-0.0496 -3,-0.15625 -0.85334,-0.10667 -1.79918,-0.39042 -2.8125,-0.84375 -1.01334,-0.45333 -1.91417,-1.075 -2.6875,-1.875 -0.77334,-0.8 -1.34542,-1.65583 -1.71875,-2.5625 -0.34667,-0.93333 -0.58542,-1.92874 -0.71875,-2.96875 -0.13334,-1.03999 -0.1875,-2.09874 -0.1875,-3.21875 l 0,-17.125 z m 56.5,8.40625 c -2.32001,2e-5 -4.18959,0.77044 -5.65625,2.34375 l 0.1875,-2.03125 -2.25,0 0,28.4375 2.25,-0.875 0,-9.21875 c 1.22666,1.44 2.98791,2.1875 5.28125,2.1875 2.31999,0 4.17124,-0.6575 5.53125,-1.9375 1.35998,-1.30666 2.03123,-3.16708 2.03125,-5.59375 l 0,-5.5625 c -2e-5,-2.29332 -0.6621,-4.15373 -1.96875,-5.59375 -1.28001,-1.43998 -3.08626,-2.15623 -5.40625,-2.15625 z m -0.0937,2.03125 c 1.43999,2e-5 2.6429,0.43252 3.65625,1.3125 1.03998,0.88002 1.56248,2.30335 1.5625,4.25 l 0,6.125 c -2e-5,1.65334 -0.48668,2.90125 -1.5,3.78125 -0.98668,0.85334 -2.26585,1.28125 -3.8125,1.28125 -1.54668,0 -2.82584,-0.39208 -3.8125,-1.21875 -0.98667,-0.82666 -1.46876,-2.11041 -1.46875,-3.84375 l 0,-6.34375 c 0.08,-1.83999 0.64749,-3.1779 1.6875,-4.03125 1.03999,-0.87998 2.27416,-1.31248 3.6875,-1.3125 z"
     id="rect3586-9" />
  <text
     xml:space="preserve"
     style="font-size:40px;font-style:normal;font-variant:normal;font-weight:normal;font-stretch:normal;line-height:125%;letter-spacing:0px;word-spacing:0px;fill:#f44800;fill-opacity:1;stroke:none;font-family:Advent Pro;-inkscape-font-specification:Advent Pro"
     x="133.7059"
     y="541.38623"
     id="text3576-0"
     sodipodi:linespacing="125%"><tspan
       sodipodi:role="line"
       id="tspan3578-2"
       x="133.7059"
       y="541.38623">ar</tspan></text>
  <path
     inkscape:connector-curvature="0"
     style="fill:#003366;fill-opacity:1;stroke:none"
     d="m 244.32618,402.72967 c -3.47674,0 -6.28125,2.20739 -6.28125,4.9375 l 0,26.40625 c 0,2.73011 2.80451,4.90625 6.28125,4.90625 l 29.0625,0 c 2.49891,0 4.64524,-1.12886 5.65625,-2.78125 -2.20152,-0.10503 -3.88189,-0.80346 -5.0625,-2.15625 -1.25334,-1.49333 -1.90625,-3.34916 -1.90625,-5.5625 l 0,-5.28125 c 0,-2.53332 0.6575,-4.47915 1.9375,-5.8125 1.30666,-1.35998 3.15791,-2.03123 5.53125,-2.03125 0.0439,0 0.0815,-4.8e-4 0.125,0 l 0,-7.6875 c 0,-2.73011 -2.80451,-4.9375 -6.28125,-4.9375 l -29.0625,0 z m 35.34375,12.625 0,2.03125 c 3.39628,0.0245 5.09373,1.97049 5.09375,5.8125 l 0,5.65625 c -2e-5,1.62667 -0.4371,2.95084 -1.34375,3.9375 -0.8682,0.94711 -2.12912,1.42479 -3.75,1.4375 -0.0283,0.70914 -0.25675,1.36689 -0.625,1.96875 0.18532,0.009 0.36995,0.0312 0.5625,0.0312 2.47999,0 4.33582,-0.72083 5.5625,-2.1875 1.22665,-1.46666 1.84373,-3.32249 1.84375,-5.5625 l 0,-5.28125 c -2e-5,-2.42665 -0.6621,-4.33207 -1.96875,-5.71875 -1.28252,-1.38718 -3.06493,-2.09933 -5.375,-2.125 z m 0,18.875 c 0.002,-0.0527 0,-0.10313 0,-0.15625 l 0,-16.6875 c -0.0218,-1.6e-4 -0.0406,0 -0.0625,0 -3.52001,2e-5 -5.28126,1.94585 -5.28125,5.8125 l 0,5.65625 c -1e-5,1.60001 0.47291,2.91959 1.40625,3.90625 0.95999,0.98667 2.24832,1.46875 3.875,1.46875 0.0222,0 0.0404,1.7e-4 0.0625,0 z m -37,-27.15625 6,0 0,15.78125 0,1.8125 c -1e-5,0.48001 0.045,1.14668 0.125,2 0.10666,0.85334 0.39041,1.61917 0.84375,2.3125 0.39999,0.69334 1.06666,1.21584 2,1.5625 0.93332,0.34667 2.12707,0.53125 3.59375,0.53125 l 5.5,0 0,-18.9375 -9.1875,0 0,-5 24.75,0 0,5 -9.28125,0 0,23.6875 -4.59375,0 0,-4.75 -1.6875,0 0,4.75 -6,0 -0.5,0 -0.4375,0 c -1.12001,0 -2.12001,-0.0496 -3,-0.15625 -0.85334,-0.10667 -1.79918,-0.39042 -2.8125,-0.84375 -1.01334,-0.45333 -1.91417,-1.075 -2.6875,-1.875 -0.77334,-0.8 -1.34542,-1.65583 -1.71875,-2.5625 -0.34667,-0.93333 -0.58542,-1.92874 -0.71875,-2.96875 -0.13334,-1.03999 -0.1875,-2.09874 -0.1875,-3.21875 l 0,-17.125 z m 56.5,8.40625 c -2.32001,2e-5 -4.18959,0.77044 -5.65625,2.34375 l 0.1875,-2.03125 -2.25,0 0,28.4375 2.25,-0.875 0,-9.21875 c 1.22666,1.44 2.98791,2.1875 5.28125,2.1875 2.31999,0 4.17124,-0.6575 5.53125,-1.9375 1.35998,-1.30666 2.03123,-3.16708 2.03125,-5.59375 l 0,-5.5625 c -2e-5,-2.29332 -0.6621,-4.15373 -1.96875,-5.59375 -1.28001,-1.43998 -3.08626,-2.15623 -5.40625,-2.15625 z m -0.0937,2.03125 c 1.43999,2e-5 2.6429,0.43252 3.65625,1.3125 1.03998,0.88002 1.56248,2.30335 1.5625,4.25 l 0,6.125 c -2e-5,1.65334 -0.48668,2.90125 -1.5,3.78125 -0.98668,0.85334 -2.26585,1.28125 -3.8125,1.28125 -1.54668,0 -2.82584,-0.39208 -3.8125,-1.21875 -0.98667,-0.82666 -1.46876,-2.11041 -1.46875,-3.84375 l 0,-6.34375 c 0.08,-1.83999 0.64749,-3.1779 1.6875,-4.03125 1.03999,-0.87998 2.27416,-1.31248 3.6875,-1.3125 z"
     id="rect3586-31" />
  <path
     style="font-size:40px;font-style:normal;font-variant:normal;font-weight:bold;font-stretch:normal;line-height:125%;letter-spacing:0px;word-spacing:0px;fill:#013397;fill-opacity:1;stroke:none;font-family:Aero;-inkscape-font-specification:Aero Bold"
     d="m 234.46574,482.07696 0,17.125 c 0,1.12001 0.0542,2.21001 0.1875,3.25 0.13333,1.04001 0.37208,2.00417 0.71875,2.9375 0.37333,0.90667 0.94541,1.7625 1.71875,2.5625 0.77333,0.8 1.67416,1.42167 2.6875,1.875 1.01332,0.45333 1.95916,0.73708 2.8125,0.84375 0.87999,0.10667 1.87999,0.15625 3,0.15625 l 0.4375,0 0.5,0 7.6875,0 0,-0.0937 0.125,0 0,-23.65625 9.28125,0 0,-5 -23.15625,0 -1.59375,0 -4.40625,0 z m 6,5 7.59375,0 0,19 -1.03125,0 c -1.46668,0 -2.66043,-0.15333 -3.59375,-0.5 -0.93334,-0.34666 -1.60001,-0.86916 -2,-1.5625 -0.45334,-0.69333 -0.73709,-1.49041 -0.84375,-2.34375 -0.08,-0.85332 -0.12501,-1.51999 -0.125,-2 l 0,-1.78125 0,-10.8125 z"
     id="text4443"
     inkscape:connector-curvature="0" />
  <text
     xml:space="preserve"
     style="font-size:20px;font-style:normal;font-variant:normal;font-weight:normal;font-stretch:normal;line-height:125%;letter-spacing:0px;word-spacing:0px;fill:#000000;fill-opacity:1;stroke:none;font-family:Advent Pro;-inkscape-font-specification:Advent Pro"
     x="255.45961"
     y="510.59741"
     id="text4462"
     sodipodi:linespacing="125%"><tspan
       sodipodi:role="line"
       id="tspan4464"
       x="255.45961"
       y="510.59741">Lartop 50</tspan></text>
  <path
     inkscape:connector-curvature="0"
     style="font-size:40px;font-style:normal;font-variant:normal;font-weight:bold;font-stretch:normal;line-height:125%;letter-spacing:0px;word-spacing:0px;fill:#0197fd;fill-opacity:1;stroke:none;font-family:Aero;-inkscape-font-specification:Aero Bold"
     d="m 232.99338,522.37113 0,17.125 c 0,1.12001 0.0542,2.21001 0.1875,3.25 0.13333,1.04001 0.37208,2.00417 0.71875,2.9375 0.37333,0.90667 0.94541,1.7625 1.71875,2.5625 0.77333,0.8 1.67416,1.42167 2.6875,1.875 1.01332,0.45333 1.95916,0.73708 2.8125,0.84375 0.87999,0.10667 1.87999,0.15625 3,0.15625 l 0.4375,0 0.5,0 7.6875,0 0,-0.0937 0.125,0 0,-23.65625 9.28125,0 0,-5 -23.15625,0 -1.59375,0 -4.40625,0 z m 6,5 7.59375,0 0,19 -1.03125,0 c -1.46668,0 -2.66043,-0.15333 -3.59375,-0.5 -0.93334,-0.34666 -1.60001,-0.86916 -2,-1.5625 -0.45334,-0.69333 -0.73709,-1.49041 -0.84375,-2.34375 -0.08,-0.85332 -0.12501,-1.51999 -0.125,-2 l 0,-1.78125 0,-10.8125 z"
     id="text4443-4" />
  <text
     xml:space="preserve"
     style="font-size:20px;font-style:normal;font-variant:normal;font-weight:normal;font-stretch:normal;line-height:125%;letter-spacing:0px;word-spacing:0px;fill:#000000;fill-opacity:1;stroke:none;font-family:Advent Pro;-inkscape-font-specification:Advent Pro"
     x="253.98723"
     y="550.89154"
     id="text4462-6"
     sodipodi:linespacing="125%"><tspan
       sodipodi:role="line"
       id="tspan4464-6"
       x="253.98723"
       y="550.89154">Lartop 50</tspan></text>
  <text
     xml:space="preserve"
     style="font-size:34.30656433000000050px;font-style:normal;font-variant:normal;font-weight:normal;font-stretch:normal;line-height:125%;letter-spacing:0px;word-spacing:0px;fill:#0197fd;fill-opacity:1;stroke:none;font-family:Advent Pro;-inkscape-font-specification:Advent Pro"
     x="233.2773"
     y="548.44128"
     id="text4490"
     sodipodi:linespacing="125%"><tspan
       sodipodi:role="line"
       id="tspan4492"
       x="233.2773"
       y="548.44128">ar</tspan></text>
  <path
     style="font-size:40px;font-style:normal;font-variant:normal;font-weight:bold;font-stretch:normal;line-height:125%;letter-spacing:0px;word-spacing:0px;fill:#013397;fill-opacity:1;stroke:none;font-family:Aero;-inkscape-font-specification:Aero Bold"
     d="m 233.4582,563.50807 0,17.125 c 0,1.12001 0.0542,2.21001 0.1875,3.25 0.13333,1.04001 0.37208,2.00417 0.71875,2.9375 0.37333,0.90667 0.94541,1.7625 1.71875,2.5625 0.77333,0.8 1.67416,1.42167 2.6875,1.875 1.01332,0.45333 1.95916,0.73708 2.8125,0.84375 0.87999,0.10667 1.87999,0.15625 3,0.15625 l 0.4375,0 0.5,0 7.6875,0 0,-0.0937 0.125,0 0,-23.65625 9.28125,0 0,-5 -23.15625,0 -1.59375,0 -4.40625,0 z m 6,5 7.59375,0 0,19 -1.03125,0 c -1.46668,0 -2.66043,-0.15333 -3.59375,-0.5 -0.93334,-0.34666 -1.60001,-0.86916 -2,-1.5625 -0.45334,-0.69333 -0.73709,-1.49041 -0.84375,-2.34375 -0.08,-0.85332 -0.12501,-1.51999 -0.125,-2 l 0,-1.78125 0,-10.8125 z"
     id="text4443-3"
     inkscape:connector-curvature="0" />
  <text
     xml:space="preserve"
     style="font-size:20px;font-style:normal;font-variant:normal;font-weight:normal;font-stretch:normal;line-height:125%;letter-spacing:0px;word-spacing:0px;fill:#000000;fill-opacity:1;stroke:none;font-family:Exo;-inkscape-font-specification:Exo;text-anchor:start;text-align:start;writing-mode:lr"
     x="254.45207"
     y="592.0285"
     id="text4462-5"
     sodipodi:linespacing="125%"><tspan
       sodipodi:role="line"
       id="tspan4464-8"
       x="254.45207"
       y="592.0285">Lartop 50</tspan></text>
  <text
     xml:space="preserve"
     style="font-size:6.14344931000000027px;font-style:normal;font-variant:normal;font-weight:normal;font-stretch:normal;line-height:125%;letter-spacing:0px;word-spacing:0px;fill:#0169c9;fill-opacity:1;stroke:none;font-family:Aero;-inkscape-font-specification:Aero"
     x="254.13191"
     y="574.58356"
     id="text4518"
     sodipodi:linespacing="125%"><tspan
       sodipodi:role="line"
       id="tspan4520"
       x="254.13191"
       y="574.58356">50</tspan></text>
  <flowRoot
     xml:space="preserve"
     id="flowRoot4550"
     style="fill:black;stroke:none;stroke-opacity:1;stroke-width:1px;stroke-linejoin:miter;stroke-linecap:butt;fill-opacity:1;font-family:Advent Pro;font-style:normal;font-weight:normal;font-size:20px;line-height:125%;letter-spacing:0px;word-spacing:0px;-inkscape-font-specification:Advent Pro;font-stretch:normal;font-variant:normal"><flowRegion
       id="flowRegion4552"><rect
         id="rect4554"
         width="120.95439"
         height="86.114265"
         x="99.918846"
         y="396.97345" /></flowRegion><flowPara
       id="flowPara4556"></flowPara></flowRoot>  <path
     inkscape:connector-curvature="0"
     style="fill:#003366;fill-opacity:1;stroke:none"
     d="m 127.82576,560.28448 c -3.47674,0 -6.28125,2.20739 -6.28125,4.9375 l 0,26.40625 c 0,2.73011 2.80451,4.90625 6.28125,4.90625 l 29.0625,0 c 2.49891,0 4.64524,-1.12886 5.65625,-2.78125 -2.20152,-0.10503 -3.88189,-0.80346 -5.0625,-2.15625 -1.25334,-1.49333 -1.90625,-3.34916 -1.90625,-5.5625 l 0,-5.28125 c 0,-2.53332 0.6575,-4.47915 1.9375,-5.8125 1.30666,-1.35998 3.15791,-2.03123 5.53125,-2.03125 0.0439,0 0.0815,-4.8e-4 0.125,0 l 0,-7.6875 c 0,-2.73011 -2.80451,-4.9375 -6.28125,-4.9375 l -29.0625,0 z m 35.34375,12.625 0,2.03125 c 3.39628,0.0245 5.09373,1.97049 5.09375,5.8125 l 0,5.65625 c -2e-5,1.62667 -0.4371,2.95084 -1.34375,3.9375 -0.8682,0.94711 -2.12912,1.42479 -3.75,1.4375 -0.0283,0.70914 -0.25675,1.36689 -0.625,1.96875 0.18532,0.009 0.36995,0.0312 0.5625,0.0312 2.47999,0 4.33582,-0.72083 5.5625,-2.1875 1.22665,-1.46666 1.84373,-3.32249 1.84375,-5.5625 l 0,-5.28125 c -2e-5,-2.42665 -0.6621,-4.33207 -1.96875,-5.71875 -1.28252,-1.38718 -3.06493,-2.09933 -5.375,-2.125 z m 0,18.875 c 0.002,-0.0527 0,-0.10313 0,-0.15625 l 0,-16.6875 c -0.0218,-1.6e-4 -0.0406,0 -0.0625,0 -3.52001,2e-5 -5.28126,1.94585 -5.28125,5.8125 l 0,5.65625 c -1e-5,1.60001 0.47291,2.91959 1.40625,3.90625 0.95999,0.98667 2.24832,1.46875 3.875,1.46875 0.0222,0 0.0404,1.7e-4 0.0625,0 z m -37,-27.15625 6,0 0,15.78125 0,1.8125 c -1e-5,0.48001 0.045,1.14668 0.125,2 0.10666,0.85334 0.39041,1.61917 0.84375,2.3125 0.39999,0.69334 1.06666,1.21584 2,1.5625 0.93332,0.34667 2.12707,0.53125 3.59375,0.53125 l 5.5,0 0,-18.9375 -9.1875,0 0,-5 24.75,0 0,5 -9.28125,0 0,23.6875 -4.59375,0 0,-4.75 -1.6875,0 0,4.75 -6,0 -0.5,0 -0.4375,0 c -1.12001,0 -2.12001,-0.0496 -3,-0.15625 -0.85334,-0.10667 -1.79918,-0.39042 -2.8125,-0.84375 -1.01334,-0.45333 -1.91417,-1.075 -2.6875,-1.875 -0.77334,-0.8 -1.34542,-1.65583 -1.71875,-2.5625 -0.34667,-0.93333 -0.58542,-1.92874 -0.71875,-2.96875 -0.13334,-1.03999 -0.1875,-2.09874 -0.1875,-3.21875 l 0,-17.125 z m 56.5,8.40625 c -2.32001,2e-5 -4.18959,0.77044 -5.65625,2.34375 l 0.1875,-2.03125 -2.25,0 0,28.4375 2.25,-0.875 0,-9.21875 c 1.22666,1.44 2.98791,2.1875 5.28125,2.1875 2.31999,0 4.17124,-0.6575 5.53125,-1.9375 1.35998,-1.30666 2.03123,-3.16708 2.03125,-5.59375 l 0,-5.5625 c -2e-5,-2.29332 -0.6621,-4.15373 -1.96875,-5.59375 -1.28001,-1.43998 -3.08626,-2.15623 -5.40625,-2.15625 z m -0.0937,2.03125 c 1.43999,2e-5 2.6429,0.43252 3.65625,1.3125 1.03998,0.88002 1.56248,2.30335 1.5625,4.25 l 0,6.125 c -2e-5,1.65334 -0.48668,2.90125 -1.5,3.78125 -0.98668,0.85334 -2.26585,1.28125 -3.8125,1.28125 -1.54668,0 -2.82584,-0.39208 -3.8125,-1.21875 -0.98667,-0.82666 -1.46876,-2.11041 -1.46875,-3.84375 l 0,-6.34375 c 0.08,-1.83999 0.64749,-3.1779 1.6875,-4.03125 1.03999,-0.87998 2.27416,-1.31248 3.6875,-1.3125 z"
     id="rect3586-31-5" />
  <text
     xml:space="preserve"
     style="font-size:20px;font-style:normal;font-variant:normal;font-weight:normal;font-stretch:normal;line-height:125%;letter-spacing:0px;word-spacing:0px;fill:#003366;fill-opacity:1;stroke:none;font-family:Advent Pro;-inkscape-font-specification:Advent Pro"
     x="189.97728"
     y="600.75531"
     id="text4576"
     sodipodi:linespacing="125%"><tspan
       sodipodi:role="line"
       id="tspan4578"
       x="189.97728"
       y="600.75531">50</tspan></text>
</svg>
